<?xml version="1.0" encoding="UTF-8"?>
<svg xmlns="http://www.w3.org/2000/svg" xmlns:xlink="http://www.w3.org/1999/xlink" width="16px" height="16px" viewBox="0 0 16 16" version="1.1">
<g id="surface1">
<path style="fill:none;stroke-width:2;stroke-linecap:round;stroke-linejoin:round;stroke:rgb(76.470588%,79.607843%,86.666667%);stroke-opacity:1;stroke-miterlimit:4;" d="M 15 4.998047 C 15 6.65625 13.658203 7.998047 12 7.998047 C 10.341797 7.998047 9 6.65625 9 4.998047 C 9 3.345703 10.341797 1.998047 12 1.998047 C 13.658203 1.998047 15 3.345703 15 4.998047 Z M 15 4.998047 " transform="matrix(0.666667,0,0,0.666667,0,0)"/>
<path style="fill:none;stroke-width:2;stroke-linecap:round;stroke-linejoin:round;stroke:rgb(76.470588%,79.607843%,86.666667%);stroke-opacity:1;stroke-miterlimit:4;" d="M 12 22.001953 L 12 7.998047 " transform="matrix(0.666667,0,0,0.666667,0,0)"/>
<path style="fill:none;stroke-width:2;stroke-linecap:round;stroke-linejoin:round;stroke:rgb(76.470588%,79.607843%,86.666667%);stroke-opacity:1;stroke-miterlimit:4;" d="M 4.998047 12 L 1.998047 12 C 1.998047 17.525391 6.474609 22.001953 12 22.001953 C 17.525391 22.001953 22.001953 17.525391 22.001953 12 L 19.001953 12 " transform="matrix(0.666667,0,0,0.666667,0,0)"/>
</g>
</svg>
