<?xml version="1.0" encoding="UTF-8"?>
<svg xmlns="http://www.w3.org/2000/svg" xmlns:xlink="http://www.w3.org/1999/xlink" width="16px" height="16px" viewBox="0 0 16 16" version="1.1">
<g id="surface1">
<path style="fill:none;stroke-width:2;stroke-linecap:round;stroke-linejoin:round;stroke:rgb(76.470588%,79.607843%,86.666667%);stroke-opacity:1;stroke-miterlimit:4;" d="M 16.001953 12 C 16.001953 14.208984 14.208984 16.001953 12 16.001953 C 9.791016 16.001953 7.998047 14.208984 7.998047 12 C 7.998047 9.791016 9.791016 7.998047 12 7.998047 C 14.208984 7.998047 16.001953 9.791016 16.001953 12 Z M 16.001953 12 " transform="matrix(0.666667,0,0,0.666667,0,0)"/>
<path style="fill:none;stroke-width:2;stroke-linecap:round;stroke-linejoin:round;stroke:rgb(76.470588%,79.607843%,86.666667%);stroke-opacity:1;stroke-miterlimit:4;" d="M 16.001953 7.998047 L 16.001953 13.001953 C 16.001953 14.654297 17.34375 16.001953 19.001953 16.001953 C 20.654297 16.001953 22.001953 14.654297 22.001953 13.001953 L 22.001953 12 C 22.001953 7.353516 18.796875 3.316406 14.273438 2.261719 C 9.75 1.207031 5.091797 3.404297 3.035156 7.576172 C 0.978516 11.742188 2.0625 16.775391 5.648438 19.728516 C 9.240234 22.675781 14.390625 22.763672 18.082031 19.939453 " transform="matrix(0.666667,0,0,0.666667,0,0)"/>
</g>
</svg>
