<?xml version="1.0" encoding="UTF-8"?>
<svg xmlns="http://www.w3.org/2000/svg" xmlns:xlink="http://www.w3.org/1999/xlink" width="16px" height="16px" viewBox="0 0 16 16" version="1.1">
<g id="surface1">
<path style="fill:none;stroke-width:2;stroke-linecap:round;stroke-linejoin:round;stroke:rgb(76.470588%,79.607843%,86.666667%);stroke-opacity:1;stroke-miterlimit:4;" d="M 4.001953 7.001953 L 19.998047 7.001953 C 21.105469 7.001953 22.001953 7.892578 22.001953 9 L 22.001953 19.001953 C 22.001953 20.103516 21.105469 21 19.998047 21 L 4.001953 21 C 2.894531 21 1.998047 20.103516 1.998047 19.001953 L 1.998047 9 C 1.998047 7.892578 2.894531 7.001953 4.001953 7.001953 Z M 4.001953 7.001953 " transform="matrix(0.666667,0,0,0.666667,0,0)"/>
<path style="fill:none;stroke-width:2;stroke-linecap:round;stroke-linejoin:round;stroke:rgb(76.470588%,79.607843%,86.666667%);stroke-opacity:1;stroke-miterlimit:4;" d="M 16.001953 21 L 16.001953 4.998047 C 16.001953 3.896484 15.105469 3 13.998047 3 L 10.001953 3 C 8.894531 3 7.998047 3.896484 7.998047 4.998047 L 7.998047 21 " transform="matrix(0.666667,0,0,0.666667,0,0)"/>
</g>
</svg>
