<?xml version="1.0" encoding="UTF-8"?>
<svg xmlns="http://www.w3.org/2000/svg" xmlns:xlink="http://www.w3.org/1999/xlink" width="16px" height="16px" viewBox="0 0 16 16" version="1.1">
<g id="surface1">
<path style="fill:none;stroke-width:2;stroke-linecap:round;stroke-linejoin:round;stroke:rgb(76.470588%,79.607843%,86.666667%);stroke-opacity:1;stroke-miterlimit:4;" d="M 22.998047 19.001953 C 22.998047 20.103516 22.107422 21 21 21 L 3 21 C 1.892578 21 1.001953 20.103516 1.001953 19.001953 L 1.001953 7.998047 C 1.001953 6.896484 1.892578 6 3 6 L 7.001953 6 L 9 3 L 15 3 L 16.998047 6 L 21 6 C 22.107422 6 22.998047 6.896484 22.998047 7.998047 Z M 22.998047 19.001953 " transform="matrix(0.666667,0,0,0.666667,0,0)"/>
<path style="fill:none;stroke-width:2;stroke-linecap:round;stroke-linejoin:round;stroke:rgb(76.470588%,79.607843%,86.666667%);stroke-opacity:1;stroke-miterlimit:4;" d="M 16.001953 13.001953 C 16.001953 15.210938 14.208984 16.998047 12 16.998047 C 9.791016 16.998047 7.998047 15.210938 7.998047 13.001953 C 7.998047 10.792969 9.791016 9 12 9 C 14.208984 9 16.001953 10.792969 16.001953 13.001953 Z M 16.001953 13.001953 " transform="matrix(0.666667,0,0,0.666667,0,0)"/>
</g>
</svg>
