<?xml version="1.0" encoding="UTF-8"?>
<svg xmlns="http://www.w3.org/2000/svg" xmlns:xlink="http://www.w3.org/1999/xlink" width="16px" height="16px" viewBox="0 0 16 16" version="1.1">
<g id="surface1">
<path style="fill:none;stroke-width:2;stroke-linecap:round;stroke-linejoin:round;stroke:rgb(76.470588%,79.607843%,86.666667%);stroke-opacity:1;stroke-miterlimit:4;" d="M 16.001953 4.001953 L 18 4.001953 C 19.107422 4.001953 19.998047 4.892578 19.998047 6 L 19.998047 19.998047 C 19.998047 21.105469 19.107422 22.001953 18 22.001953 L 6 22.001953 C 4.892578 22.001953 4.001953 21.105469 4.001953 19.998047 L 4.001953 6 C 4.001953 4.892578 4.892578 4.001953 6 4.001953 L 7.998047 4.001953 " transform="matrix(0.666667,0,0,0.666667,0,0)"/>
<path style="fill:none;stroke-width:2;stroke-linecap:round;stroke-linejoin:round;stroke:rgb(76.470588%,79.607843%,86.666667%);stroke-opacity:1;stroke-miterlimit:4;" d="M 9 1.998047 L 15 1.998047 C 15.550781 1.998047 16.001953 2.449219 16.001953 3 L 16.001953 4.998047 C 16.001953 5.554688 15.550781 6 15 6 L 9 6 C 8.449219 6 7.998047 5.554688 7.998047 4.998047 L 7.998047 3 C 7.998047 2.449219 8.449219 1.998047 9 1.998047 Z M 9 1.998047 " transform="matrix(0.666667,0,0,0.666667,0,0)"/>
</g>
</svg>
