<?xml version="1.0" encoding="UTF-8"?>
<svg xmlns="http://www.w3.org/2000/svg" xmlns:xlink="http://www.w3.org/1999/xlink" width="16px" height="16px" viewBox="0 0 16 16" version="1.1">
<g id="surface1">
<path style="fill:none;stroke-width:2;stroke-linecap:round;stroke-linejoin:round;stroke:rgb(76.470588%,79.607843%,86.666667%);stroke-opacity:1;stroke-miterlimit:4;" d="M 22.611328 16.951172 C 23.261719 15.404297 23.097656 13.634766 22.171875 12.234375 C 21.246094 10.839844 19.675781 9.996094 18 10.001953 L 16.740234 10.001953 C 15.902344 6.703125 13.078125 4.300781 9.691406 4.001953 M 4.998047 4.998047 C 1.787109 6.779297 0.193359 10.511719 1.142578 14.0625 C 2.085938 17.613281 5.326172 20.056641 9 19.998047 L 18 19.998047 C 18.580078 19.998047 19.154297 19.898438 19.699219 19.699219 " transform="matrix(0.666667,0,0,0.666667,0,0)"/>
<path style="fill:none;stroke-width:2;stroke-linecap:round;stroke-linejoin:round;stroke:rgb(76.470588%,79.607843%,86.666667%);stroke-opacity:1;stroke-miterlimit:4;" d="M 1.001953 1.001953 L 22.998047 22.998047 " transform="matrix(0.666667,0,0,0.666667,0,0)"/>
</g>
</svg>
