<?xml version="1.0" encoding="UTF-8"?>
<svg xmlns="http://www.w3.org/2000/svg" xmlns:xlink="http://www.w3.org/1999/xlink" width="16px" height="16px" viewBox="0 0 16 16" version="1.1">
<g id="surface1">
<path style="fill:none;stroke-width:2;stroke-linecap:round;stroke-linejoin:round;stroke:rgb(76.470588%,79.607843%,86.666667%);stroke-opacity:1;stroke-miterlimit:4;" d="M 10.998047 9 L 19.998047 9 C 21.105469 9 22.001953 9.896484 22.001953 10.998047 L 22.001953 19.998047 C 22.001953 21.105469 21.105469 22.001953 19.998047 22.001953 L 10.998047 22.001953 C 9.896484 22.001953 9 21.105469 9 19.998047 L 9 10.998047 C 9 9.896484 9.896484 9 10.998047 9 Z M 10.998047 9 " transform="matrix(0.666667,0,0,0.666667,0,0)"/>
<path style="fill:none;stroke-width:2;stroke-linecap:round;stroke-linejoin:round;stroke:rgb(76.470588%,79.607843%,86.666667%);stroke-opacity:1;stroke-miterlimit:4;" d="M 4.998047 15 L 4.001953 15 C 2.894531 15 1.998047 14.103516 1.998047 13.001953 L 1.998047 4.001953 C 1.998047 2.894531 2.894531 1.998047 4.001953 1.998047 L 13.001953 1.998047 C 14.103516 1.998047 15 2.894531 15 4.001953 L 15 4.998047 " transform="matrix(0.666667,0,0,0.666667,0,0)"/>
</g>
</svg>
