<?xml version="1.0" encoding="UTF-8"?>
<svg xmlns="http://www.w3.org/2000/svg" xmlns:xlink="http://www.w3.org/1999/xlink" width="16px" height="16px" viewBox="0 0 16 16" version="1.1">
<g id="surface1">
<path style="fill:none;stroke-width:2;stroke-linecap:round;stroke-linejoin:round;stroke:rgb(76.470588%,79.607843%,86.666667%);stroke-opacity:1;stroke-miterlimit:4;" d="M 4.998047 5.501953 C 4.998047 3.568359 6.568359 1.998047 8.501953 1.998047 L 12 1.998047 L 12 9 L 8.501953 9 C 6.568359 9 4.998047 7.435547 4.998047 5.501953 Z M 4.998047 5.501953 " transform="matrix(0.666667,0,0,0.666667,0,0)"/>
<path style="fill:none;stroke-width:2;stroke-linecap:round;stroke-linejoin:round;stroke:rgb(76.470588%,79.607843%,86.666667%);stroke-opacity:1;stroke-miterlimit:4;" d="M 12 1.998047 L 15.498047 1.998047 C 17.431641 1.998047 19.001953 3.568359 19.001953 5.501953 C 19.001953 7.435547 17.431641 9 15.498047 9 L 12 9 Z M 12 1.998047 " transform="matrix(0.666667,0,0,0.666667,0,0)"/>
<path style="fill:none;stroke-width:2;stroke-linecap:round;stroke-linejoin:round;stroke:rgb(76.470588%,79.607843%,86.666667%);stroke-opacity:1;stroke-miterlimit:4;" d="M 12 12.498047 C 12 10.564453 13.564453 9 15.498047 9 C 17.431641 9 19.001953 10.564453 19.001953 12.498047 C 19.001953 14.431641 17.431641 16.001953 15.498047 16.001953 C 13.564453 16.001953 12 14.431641 12 12.498047 Z M 12 12.498047 " transform="matrix(0.666667,0,0,0.666667,0,0)"/>
<path style="fill:none;stroke-width:2;stroke-linecap:round;stroke-linejoin:round;stroke:rgb(76.470588%,79.607843%,86.666667%);stroke-opacity:1;stroke-miterlimit:4;" d="M 4.998047 19.5 C 4.998047 17.566406 6.568359 16.001953 8.501953 16.001953 L 12 16.001953 L 12 19.5 C 12 21.433594 10.435547 22.998047 8.501953 22.998047 C 6.568359 22.998047 4.998047 21.433594 4.998047 19.5 Z M 4.998047 19.5 " transform="matrix(0.666667,0,0,0.666667,0,0)"/>
<path style="fill:none;stroke-width:2;stroke-linecap:round;stroke-linejoin:round;stroke:rgb(76.470588%,79.607843%,86.666667%);stroke-opacity:1;stroke-miterlimit:4;" d="M 4.998047 12.498047 C 4.998047 10.564453 6.568359 9 8.501953 9 L 12 9 L 12 16.001953 L 8.501953 16.001953 C 6.568359 16.001953 4.998047 14.431641 4.998047 12.498047 Z M 4.998047 12.498047 " transform="matrix(0.666667,0,0,0.666667,0,0)"/>
</g>
</svg>
