<?xml version="1.0" encoding="UTF-8"?>
<svg xmlns="http://www.w3.org/2000/svg" xmlns:xlink="http://www.w3.org/1999/xlink" width="16px" height="16px" viewBox="0 0 16 16" version="1.1">
<g id="surface1">
<path style="fill:none;stroke-width:2;stroke-linecap:round;stroke-linejoin:round;stroke:rgb(76.470588%,79.607843%,86.666667%);stroke-opacity:1;stroke-miterlimit:4;" d="M 13.998047 1.998047 L 6 1.998047 C 4.892578 1.998047 4.001953 2.894531 4.001953 4.001953 L 4.001953 19.998047 C 4.001953 21.105469 4.892578 22.001953 6 22.001953 L 18 22.001953 C 19.107422 22.001953 19.998047 21.105469 19.998047 19.998047 L 19.998047 7.998047 Z M 13.998047 1.998047 " transform="matrix(0.666667,0,0,0.666667,0,0)"/>
<path style="fill:none;stroke-width:2;stroke-linecap:round;stroke-linejoin:round;stroke:rgb(76.470588%,79.607843%,86.666667%);stroke-opacity:1;stroke-miterlimit:4;" d="M 13.998047 1.998047 L 13.998047 7.998047 L 19.998047 7.998047 " transform="matrix(0.666667,0,0,0.666667,0,0)"/>
<path style="fill:none;stroke-width:2;stroke-linecap:round;stroke-linejoin:round;stroke:rgb(76.470588%,79.607843%,86.666667%);stroke-opacity:1;stroke-miterlimit:4;" d="M 9 15 L 15 15 " transform="matrix(0.666667,0,0,0.666667,0,0)"/>
</g>
</svg>
