<?xml version="1.0" encoding="UTF-8"?>
<svg xmlns="http://www.w3.org/2000/svg" xmlns:xlink="http://www.w3.org/1999/xlink" width="16px" height="16px" viewBox="0 0 16 16" version="1.1">
<g id="surface1">
<path style="fill:none;stroke-width:2;stroke-linecap:round;stroke-linejoin:round;stroke:rgb(76.470588%,79.607843%,86.666667%);stroke-opacity:1;stroke-miterlimit:4;" d="M 6 3 L 6 15 " transform="matrix(0.666667,0,0,0.666667,0,0)"/>
<path style="fill:none;stroke-width:2;stroke-linecap:round;stroke-linejoin:round;stroke:rgb(76.470588%,79.607843%,86.666667%);stroke-opacity:1;stroke-miterlimit:4;" d="M 21 6 C 21 7.658203 19.658203 9 18 9 C 16.341797 9 15 7.658203 15 6 C 15 4.341797 16.341797 3 18 3 C 19.658203 3 21 4.341797 21 6 Z M 21 6 " transform="matrix(0.666667,0,0,0.666667,0,0)"/>
<path style="fill:none;stroke-width:2;stroke-linecap:round;stroke-linejoin:round;stroke:rgb(76.470588%,79.607843%,86.666667%);stroke-opacity:1;stroke-miterlimit:4;" d="M 9 18 C 9 19.658203 7.658203 21 6 21 C 4.341797 21 3 19.658203 3 18 C 3 16.341797 4.341797 15 6 15 C 7.658203 15 9 16.341797 9 18 Z M 9 18 " transform="matrix(0.666667,0,0,0.666667,0,0)"/>
<path style="fill:none;stroke-width:2;stroke-linecap:round;stroke-linejoin:round;stroke:rgb(76.470588%,79.607843%,86.666667%);stroke-opacity:1;stroke-miterlimit:4;" d="M 18 9 C 18 13.96875 13.96875 18 9 18 " transform="matrix(0.666667,0,0,0.666667,0,0)"/>
</g>
</svg>
