<?xml version="1.0" encoding="UTF-8"?>
<svg xmlns="http://www.w3.org/2000/svg" xmlns:xlink="http://www.w3.org/1999/xlink" width="16px" height="16px" viewBox="0 0 16 16" version="1.1">
<g id="surface1">
<path style="fill:none;stroke-width:2;stroke-linecap:round;stroke-linejoin:round;stroke:rgb(76.470588%,79.607843%,86.666667%);stroke-opacity:1;stroke-miterlimit:4;" d="M 9 19.001953 C 4.001953 20.501953 4.001953 16.5 1.998047 16.001953 M 16.001953 22.001953 L 16.001953 18.128906 C 16.078125 17.167969 15.732422 16.212891 15.058594 15.521484 C 18.199219 15.169922 21.498047 13.980469 21.498047 8.519531 C 21.498047 7.125 20.964844 5.783203 19.998047 4.769531 C 20.455078 3.550781 20.425781 2.197266 19.910156 1.001953 C 19.910156 1.001953 18.732422 0.650391 16.001953 2.478516 C 13.710938 1.857422 11.291016 1.857422 9 2.478516 C 6.269531 0.650391 5.091797 1.001953 5.091797 1.001953 C 4.576172 2.197266 4.546875 3.550781 4.998047 4.769531 C 4.03125 5.789062 3.492188 7.142578 3.498047 8.548828 C 3.498047 13.96875 6.802734 15.158203 9.9375 15.550781 C 9.275391 16.236328 8.935547 17.173828 9 18.128906 L 9 22.001953 " transform="matrix(0.666667,0,0,0.666667,0,0)"/>
</g>
</svg>
