<?xml version="1.0" encoding="UTF-8"?>
<svg xmlns="http://www.w3.org/2000/svg" xmlns:xlink="http://www.w3.org/1999/xlink" width="16px" height="16px" viewBox="0 0 16 16" version="1.1">
<g id="surface1">
<path style="fill:none;stroke-width:2;stroke-linecap:round;stroke-linejoin:round;stroke:rgb(76.470588%,79.607843%,86.666667%);stroke-opacity:1;stroke-miterlimit:4;" d="M 22.652344 14.390625 L 12 22.130859 L 1.347656 14.390625 C 1.054688 14.173828 0.9375 13.792969 1.048828 13.447266 L 2.267578 9.667969 L 4.710938 2.162109 C 4.734375 2.097656 4.769531 2.044922 4.822266 1.998047 C 4.986328 1.851562 5.238281 1.851562 5.402344 1.998047 C 5.449219 2.050781 5.490234 2.109375 5.507812 2.179688 L 7.951172 9.667969 L 16.048828 9.667969 L 18.492188 2.162109 C 18.515625 2.097656 18.550781 2.044922 18.597656 1.998047 C 18.761719 1.851562 19.013672 1.851562 19.177734 1.998047 C 19.230469 2.050781 19.271484 2.109375 19.289062 2.179688 L 21.732422 9.691406 L 22.998047 13.447266 C 23.103516 13.804688 22.962891 14.185547 22.652344 14.390625 Z M 22.652344 14.390625 " transform="matrix(0.666667,0,0,0.666667,0,0)"/>
</g>
</svg>
