<?xml version="1.0" encoding="UTF-8"?>
<svg xmlns="http://www.w3.org/2000/svg" xmlns:xlink="http://www.w3.org/1999/xlink" width="16px" height="16px" viewBox="0 0 16 16" version="1.1">
<g id="surface1">
<path style="fill:none;stroke-width:2;stroke-linecap:round;stroke-linejoin:round;stroke:rgb(76.470588%,79.607843%,86.666667%);stroke-opacity:1;stroke-miterlimit:4;" d="M 22.001953 12 C 22.001953 17.525391 17.525391 22.001953 12 22.001953 C 6.474609 22.001953 1.998047 17.525391 1.998047 12 C 1.998047 6.474609 6.474609 1.998047 12 1.998047 C 17.525391 1.998047 22.001953 6.474609 22.001953 12 Z M 22.001953 12 " transform="matrix(0.666667,0,0,0.666667,0,0)"/>
<path style="fill:none;stroke-width:2;stroke-linecap:round;stroke-linejoin:round;stroke:rgb(76.470588%,79.607843%,86.666667%);stroke-opacity:1;stroke-miterlimit:4;" d="M 1.998047 12 L 22.001953 12 " transform="matrix(0.666667,0,0,0.666667,0,0)"/>
<path style="fill:none;stroke-width:2;stroke-linecap:round;stroke-linejoin:round;stroke:rgb(76.470588%,79.607843%,86.666667%);stroke-opacity:1;stroke-miterlimit:4;" d="M 12 1.998047 C 14.501953 4.740234 15.919922 8.291016 16.001953 12 C 15.919922 15.708984 14.501953 19.259766 12 22.001953 C 9.498047 19.259766 8.080078 15.708984 7.998047 12 C 8.080078 8.291016 9.498047 4.740234 12 1.998047 Z M 12 1.998047 " transform="matrix(0.666667,0,0,0.666667,0,0)"/>
</g>
</svg>
