<?xml version="1.0" encoding="UTF-8"?>
<svg xmlns="http://www.w3.org/2000/svg" xmlns:xlink="http://www.w3.org/1999/xlink" width="16px" height="16px" viewBox="0 0 16 16" version="1.1">
<g id="surface1">
<path style="fill:none;stroke-width:2;stroke-linecap:round;stroke-linejoin:round;stroke:rgb(76.470588%,79.607843%,86.666667%);stroke-opacity:1;stroke-miterlimit:4;" d="M 22.001953 12 C 22.001953 17.525391 17.525391 22.001953 12 22.001953 C 6.474609 22.001953 1.998047 17.525391 1.998047 12 C 1.998047 6.474609 6.474609 1.998047 12 1.998047 C 17.525391 1.998047 22.001953 6.474609 22.001953 12 Z M 22.001953 12 " transform="matrix(0.666667,0,0,0.666667,0,0)"/>
<path style="fill:none;stroke-width:2;stroke-linecap:round;stroke-linejoin:round;stroke:rgb(76.470588%,79.607843%,86.666667%);stroke-opacity:1;stroke-miterlimit:4;" d="M 9.087891 9 C 9.574219 7.617188 10.986328 6.791016 12.427734 7.037109 C 13.869141 7.283203 14.923828 8.537109 14.917969 10.001953 C 14.917969 12 11.917969 13.001953 11.917969 13.001953 " transform="matrix(0.666667,0,0,0.666667,0,0)"/>
<path style="fill:none;stroke-width:2;stroke-linecap:round;stroke-linejoin:round;stroke:rgb(76.470588%,79.607843%,86.666667%);stroke-opacity:1;stroke-miterlimit:4;" d="M 12 16.998047 L 12.011719 16.998047 " transform="matrix(0.666667,0,0,0.666667,0,0)"/>
</g>
</svg>
