<?xml version="1.0" encoding="UTF-8"?>
<svg xmlns="http://www.w3.org/2000/svg" xmlns:xlink="http://www.w3.org/1999/xlink" width="16px" height="16px" viewBox="0 0 16 16" version="1.1">
<g id="surface1">
<path style="fill:none;stroke-width:2;stroke-linecap:round;stroke-linejoin:round;stroke:rgb(76.470588%,79.607843%,86.666667%);stroke-opacity:1;stroke-miterlimit:4;" d="M 21 1.998047 L 19.001953 4.001953 M 11.390625 11.607422 C 12.796875 12.996094 13.347656 15.029297 12.84375 16.939453 C 12.333984 18.84375 10.845703 20.332031 8.941406 20.841797 C 7.03125 21.345703 4.998047 20.794922 3.609375 19.388672 C 1.529297 17.232422 1.558594 13.798828 3.679688 11.677734 C 5.800781 9.556641 9.228516 9.527344 11.390625 11.613281 Z M 11.390625 11.607422 L 15.498047 7.5 M 15.498047 7.5 L 18.498047 10.5 L 22.001953 7.001953 L 19.001953 4.001953 M 15.498047 7.5 L 19.001953 4.001953 " transform="matrix(0.666667,0,0,0.666667,0,0)"/>
</g>
</svg>
