<?xml version="1.0" encoding="UTF-8"?>
<svg xmlns="http://www.w3.org/2000/svg" xmlns:xlink="http://www.w3.org/1999/xlink" width="16px" height="16px" viewBox="0 0 16 16" version="1.1">
<g id="surface1">
<path style="fill:none;stroke-width:2;stroke-linecap:round;stroke-linejoin:round;stroke:rgb(76.470588%,79.607843%,86.666667%);stroke-opacity:1;stroke-miterlimit:4;" d="M 21 10.001953 C 21 16.998047 12 22.998047 12 22.998047 C 12 22.998047 3 16.998047 3 10.001953 C 3 5.027344 7.03125 1.001953 12 1.001953 C 16.96875 1.001953 21 5.027344 21 10.001953 Z M 21 10.001953 " transform="matrix(0.666667,0,0,0.666667,0,0)"/>
<path style="fill:none;stroke-width:2;stroke-linecap:round;stroke-linejoin:round;stroke:rgb(76.470588%,79.607843%,86.666667%);stroke-opacity:1;stroke-miterlimit:4;" d="M 15 10.001953 C 15 11.654297 13.658203 13.001953 12 13.001953 C 10.341797 13.001953 9 11.654297 9 10.001953 C 9 8.34375 10.341797 7.001953 12 7.001953 C 13.658203 7.001953 15 8.34375 15 10.001953 Z M 15 10.001953 " transform="matrix(0.666667,0,0,0.666667,0,0)"/>
</g>
</svg>
