<?xml version="1.0" encoding="UTF-8"?>
<svg xmlns="http://www.w3.org/2000/svg" xmlns:xlink="http://www.w3.org/1999/xlink" width="16px" height="16px" viewBox="0 0 16 16" version="1.1">
<g id="surface1">
<path style="fill:none;stroke-width:2;stroke-linecap:round;stroke-linejoin:round;stroke:rgb(76.470588%,79.607843%,86.666667%);stroke-opacity:1;stroke-miterlimit:4;" d="M 21 11.501953 C 21.005859 12.820312 20.695312 14.121094 20.097656 15.298828 C 18.662109 18.181641 15.720703 19.998047 12.498047 19.998047 C 11.179688 20.003906 9.878906 19.693359 8.701172 19.101562 L 3 21 L 4.898438 15.298828 C 4.306641 14.121094 3.996094 12.820312 4.001953 11.501953 C 4.001953 8.279297 5.818359 5.337891 8.701172 3.902344 C 9.878906 3.304688 11.179688 2.994141 12.498047 3 L 13.001953 3 C 17.314453 3.240234 20.759766 6.685547 21 10.998047 Z M 21 11.501953 " transform="matrix(0.666667,0,0,0.666667,0,0)"/>
</g>
</svg>
