<?xml version="1.0" encoding="UTF-8"?>
<svg xmlns="http://www.w3.org/2000/svg" xmlns:xlink="http://www.w3.org/1999/xlink" width="16px" height="16px" viewBox="0 0 16 16" version="1.1">
<g id="surface1">
<path style="fill:none;stroke-width:2;stroke-linecap:round;stroke-linejoin:round;stroke:rgb(76.470588%,79.607843%,86.666667%);stroke-opacity:1;stroke-miterlimit:4;" d="M 12 1.001953 C 10.341797 1.001953 9 2.34375 9 4.001953 L 9 12 C 9 13.658203 10.341797 15 12 15 C 13.658203 15 15 13.658203 15 12 L 15 4.001953 C 15 2.34375 13.658203 1.001953 12 1.001953 Z M 12 1.001953 " transform="matrix(0.666667,0,0,0.666667,0,0)"/>
<path style="fill:none;stroke-width:2;stroke-linecap:round;stroke-linejoin:round;stroke:rgb(76.470588%,79.607843%,86.666667%);stroke-opacity:1;stroke-miterlimit:4;" d="M 19.001953 10.001953 L 19.001953 12 C 19.001953 15.867188 15.867188 19.001953 12 19.001953 C 8.132812 19.001953 4.998047 15.867188 4.998047 12 L 4.998047 10.001953 " transform="matrix(0.666667,0,0,0.666667,0,0)"/>
<path style="fill:none;stroke-width:2;stroke-linecap:round;stroke-linejoin:round;stroke:rgb(76.470588%,79.607843%,86.666667%);stroke-opacity:1;stroke-miterlimit:4;" d="M 12 19.001953 L 12 22.998047 " transform="matrix(0.666667,0,0,0.666667,0,0)"/>
<path style="fill:none;stroke-width:2;stroke-linecap:round;stroke-linejoin:round;stroke:rgb(76.470588%,79.607843%,86.666667%);stroke-opacity:1;stroke-miterlimit:4;" d="M 7.998047 22.998047 L 16.001953 22.998047 " transform="matrix(0.666667,0,0,0.666667,0,0)"/>
</g>
</svg>
