<?xml version="1.0" encoding="UTF-8"?>
<svg xmlns="http://www.w3.org/2000/svg" xmlns:xlink="http://www.w3.org/1999/xlink" width="16px" height="16px" viewBox="0 0 16 16" version="1.1">
<g id="surface1">
<path style="fill:none;stroke-width:2;stroke-linecap:round;stroke-linejoin:round;stroke:rgb(76.470588%,79.607843%,86.666667%);stroke-opacity:1;stroke-miterlimit:4;" d="M 4.001953 3 L 19.998047 3 C 21.105469 3 22.001953 3.896484 22.001953 4.998047 L 22.001953 15 C 22.001953 16.107422 21.105469 16.998047 19.998047 16.998047 L 4.001953 16.998047 C 2.894531 16.998047 1.998047 16.107422 1.998047 15 L 1.998047 4.998047 C 1.998047 3.896484 2.894531 3 4.001953 3 Z M 4.001953 3 " transform="matrix(0.666667,0,0,0.666667,0,0)"/>
<path style="fill:none;stroke-width:2;stroke-linecap:round;stroke-linejoin:round;stroke:rgb(76.470588%,79.607843%,86.666667%);stroke-opacity:1;stroke-miterlimit:4;" d="M 7.998047 21 L 16.001953 21 " transform="matrix(0.666667,0,0,0.666667,0,0)"/>
<path style="fill:none;stroke-width:2;stroke-linecap:round;stroke-linejoin:round;stroke:rgb(76.470588%,79.607843%,86.666667%);stroke-opacity:1;stroke-miterlimit:4;" d="M 12 16.998047 L 12 21 " transform="matrix(0.666667,0,0,0.666667,0,0)"/>
</g>
</svg>
