<?xml version="1.0" encoding="UTF-8"?>
<svg xmlns="http://www.w3.org/2000/svg" xmlns:xlink="http://www.w3.org/1999/xlink" width="16px" height="16px" viewBox="0 0 16 16" version="1.1">
<g id="surface1">
<path style="fill:none;stroke-width:2;stroke-linecap:round;stroke-linejoin:round;stroke:rgb(76.470588%,79.607843%,86.666667%);stroke-opacity:1;stroke-miterlimit:4;" d="M 9 18 L 9 4.998047 L 21 3 L 21 16.001953 " transform="matrix(0.666667,0,0,0.666667,0,0)"/>
<path style="fill:none;stroke-width:2;stroke-linecap:round;stroke-linejoin:round;stroke:rgb(76.470588%,79.607843%,86.666667%);stroke-opacity:1;stroke-miterlimit:4;" d="M 9 18 C 9 19.658203 7.658203 21 6 21 C 4.341797 21 3 19.658203 3 18 C 3 16.341797 4.341797 15 6 15 C 7.658203 15 9 16.341797 9 18 Z M 9 18 " transform="matrix(0.666667,0,0,0.666667,0,0)"/>
<path style="fill:none;stroke-width:2;stroke-linecap:round;stroke-linejoin:round;stroke:rgb(76.470588%,79.607843%,86.666667%);stroke-opacity:1;stroke-miterlimit:4;" d="M 21 16.001953 C 21 17.654297 19.658203 19.001953 18 19.001953 C 16.341797 19.001953 15 17.654297 15 16.001953 C 15 14.34375 16.341797 13.001953 18 13.001953 C 19.658203 13.001953 21 14.34375 21 16.001953 Z M 21 16.001953 " transform="matrix(0.666667,0,0,0.666667,0,0)"/>
</g>
</svg>
