<?xml version="1.0" encoding="UTF-8"?>
<svg xmlns="http://www.w3.org/2000/svg" xmlns:xlink="http://www.w3.org/1999/xlink" width="16px" height="16px" viewBox="0 0 16 16" version="1.1">
<g id="surface1">
<path style="fill:none;stroke-width:2;stroke-linecap:round;stroke-linejoin:round;stroke:rgb(76.470588%,79.607843%,86.666667%);stroke-opacity:1;stroke-miterlimit:4;" d="M 12 19.001953 L 19.001953 12 L 22.001953 15 L 15 22.001953 Z M 12 19.001953 " transform="matrix(0.666667,0,0,0.666667,0,0)"/>
<path style="fill:none;stroke-width:2;stroke-linecap:round;stroke-linejoin:round;stroke:rgb(76.470588%,79.607843%,86.666667%);stroke-opacity:1;stroke-miterlimit:4;" d="M 18 13.001953 L 16.5 5.501953 L 1.998047 1.998047 L 5.501953 16.5 L 13.001953 18 Z M 18 13.001953 " transform="matrix(0.666667,0,0,0.666667,0,0)"/>
<path style="fill:none;stroke-width:2;stroke-linecap:round;stroke-linejoin:round;stroke:rgb(76.470588%,79.607843%,86.666667%);stroke-opacity:1;stroke-miterlimit:4;" d="M 1.998047 1.998047 L 9.585938 9.585938 " transform="matrix(0.666667,0,0,0.666667,0,0)"/>
<path style="fill:none;stroke-width:2;stroke-linecap:round;stroke-linejoin:round;stroke:rgb(76.470588%,79.607843%,86.666667%);stroke-opacity:1;stroke-miterlimit:4;" d="M 13.001953 10.998047 C 13.001953 12.105469 12.105469 13.001953 10.998047 13.001953 C 9.896484 13.001953 9 12.105469 9 10.998047 C 9 9.896484 9.896484 9 10.998047 9 C 12.105469 9 13.001953 9.896484 13.001953 10.998047 Z M 13.001953 10.998047 " transform="matrix(0.666667,0,0,0.666667,0,0)"/>
</g>
</svg>
