<?xml version="1.0" encoding="UTF-8"?>
<svg xmlns="http://www.w3.org/2000/svg" xmlns:xlink="http://www.w3.org/1999/xlink" width="16px" height="16px" viewBox="0 0 16 16" version="1.1">
<g id="surface1">
<path style="fill:none;stroke-width:2;stroke-linecap:round;stroke-linejoin:round;stroke:rgb(76.470588%,79.607843%,86.666667%);stroke-opacity:1;stroke-miterlimit:4;" d="M 10.681641 13.3125 C 11.695312 14.326172 12.84375 15.199219 14.091797 15.908203 L 15.357422 14.642578 C 15.914062 14.091797 16.740234 13.916016 17.472656 14.191406 C 18.375 14.53125 19.318359 14.765625 20.279297 14.888672 C 21.275391 15.029297 22.007812 15.884766 22.001953 16.892578 L 22.001953 19.892578 C 22.001953 20.455078 21.767578 20.988281 21.351562 21.369141 C 20.935547 21.75 20.378906 21.943359 19.822266 21.890625 C 16.740234 21.556641 13.787109 20.501953 11.191406 18.820312 C 9.984375 18.052734 8.871094 17.162109 7.857422 16.148438 M 5.191406 12.808594 C 3.503906 10.212891 2.455078 7.259766 2.121094 4.177734 C 2.068359 3.621094 2.255859 3.064453 2.636719 2.654297 C 3.011719 2.238281 3.550781 1.998047 4.107422 1.998047 L 7.107422 1.998047 C 8.115234 1.992188 8.970703 2.724609 9.111328 3.720703 C 9.234375 4.681641 9.46875 5.625 9.808594 6.527344 C 10.083984 7.259766 9.908203 8.085938 9.357422 8.642578 L 8.091797 9.908203 " transform="matrix(0.666667,0,0,0.666667,0,0)"/>
<path style="fill:none;stroke-width:2;stroke-linecap:round;stroke-linejoin:round;stroke:rgb(76.470588%,79.607843%,86.666667%);stroke-opacity:1;stroke-miterlimit:4;" d="M 22.998047 1.001953 L 1.001953 22.998047 " transform="matrix(0.666667,0,0,0.666667,0,0)"/>
</g>
</svg>
