<?xml version="1.0" encoding="UTF-8"?>
<svg xmlns="http://www.w3.org/2000/svg" xmlns:xlink="http://www.w3.org/1999/xlink" width="16px" height="16px" viewBox="0 0 16 16" version="1.1">
<g id="surface1">
<path style="fill:none;stroke-width:2;stroke-linecap:round;stroke-linejoin:round;stroke:rgb(76.470588%,79.607843%,86.666667%);stroke-opacity:1;stroke-miterlimit:4;" d="M 22.998047 1.001953 L 16.998047 7.001953 " transform="matrix(0.666667,0,0,0.666667,0,0)"/>
<path style="fill:none;stroke-width:2;stroke-linecap:round;stroke-linejoin:round;stroke:rgb(76.470588%,79.607843%,86.666667%);stroke-opacity:1;stroke-miterlimit:4;" d="M 16.998047 1.001953 L 22.998047 7.001953 " transform="matrix(0.666667,0,0,0.666667,0,0)"/>
<path style="fill:none;stroke-width:2;stroke-linecap:round;stroke-linejoin:round;stroke:rgb(76.470588%,79.607843%,86.666667%);stroke-opacity:1;stroke-miterlimit:4;" d="M 22.001953 16.921875 L 22.001953 19.921875 C 22.001953 20.484375 21.767578 21.023438 21.351562 21.404297 C 20.935547 21.785156 20.378906 21.972656 19.822266 21.919922 C 16.740234 21.585938 13.787109 20.53125 11.191406 18.849609 C 8.771484 17.314453 6.726562 15.263672 5.191406 12.849609 C 3.498047 10.242188 2.449219 7.271484 2.121094 4.177734 C 2.068359 3.621094 2.255859 3.064453 2.636719 2.654297 C 3.011719 2.238281 3.550781 1.998047 4.107422 1.998047 L 7.107422 1.998047 C 8.115234 1.992188 8.970703 2.724609 9.111328 3.720703 C 9.234375 4.681641 9.46875 5.625 9.808594 6.527344 C 10.083984 7.259766 9.908203 8.085938 9.357422 8.642578 L 8.091797 9.908203 C 9.515625 12.416016 11.583984 14.484375 14.091797 15.908203 L 15.357422 14.642578 C 15.914062 14.091797 16.740234 13.916016 17.472656 14.191406 C 18.375 14.53125 19.318359 14.765625 20.279297 14.888672 C 21.287109 15.029297 22.025391 15.902344 22.001953 16.921875 Z M 22.001953 16.921875 " transform="matrix(0.666667,0,0,0.666667,0,0)"/>
</g>
</svg>
