<?xml version="1.0" encoding="UTF-8"?>
<svg xmlns="http://www.w3.org/2000/svg" xmlns:xlink="http://www.w3.org/1999/xlink" width="16px" height="16px" viewBox="0 0 16 16" version="1.1">
<g id="surface1">
<path style="fill:none;stroke-width:2;stroke-linecap:round;stroke-linejoin:round;stroke:rgb(76.470588%,79.607843%,86.666667%);stroke-opacity:1;stroke-miterlimit:4;" d="M 6 9 L 6 1.998047 L 18 1.998047 L 18 9 " transform="matrix(0.666667,0,0,0.666667,0,0)"/>
<path style="fill:none;stroke-width:2;stroke-linecap:round;stroke-linejoin:round;stroke:rgb(76.470588%,79.607843%,86.666667%);stroke-opacity:1;stroke-miterlimit:4;" d="M 6 18 L 4.001953 18 C 2.894531 18 1.998047 17.103516 1.998047 16.001953 L 1.998047 10.998047 C 1.998047 9.896484 2.894531 9 4.001953 9 L 19.998047 9 C 21.105469 9 22.001953 9.896484 22.001953 10.998047 L 22.001953 16.001953 C 22.001953 17.103516 21.105469 18 19.998047 18 L 18 18 " transform="matrix(0.666667,0,0,0.666667,0,0)"/>
<path style="fill:none;stroke-width:2;stroke-linecap:round;stroke-linejoin:round;stroke:rgb(76.470588%,79.607843%,86.666667%);stroke-opacity:1;stroke-miterlimit:4;" d="M 6 13.998047 L 18 13.998047 L 18 22.001953 L 6 22.001953 Z M 6 13.998047 " transform="matrix(0.666667,0,0,0.666667,0,0)"/>
</g>
</svg>
