<?xml version="1.0" encoding="UTF-8"?>
<svg xmlns="http://www.w3.org/2000/svg" xmlns:xlink="http://www.w3.org/1999/xlink" width="16px" height="16px" viewBox="0 0 16 16" version="1.1">
<g id="surface1">
<path style="fill:none;stroke-width:2;stroke-linecap:round;stroke-linejoin:round;stroke:rgb(76.470588%,79.607843%,86.666667%);stroke-opacity:1;stroke-miterlimit:4;" d="M 13.998047 12 C 13.998047 13.107422 13.107422 13.998047 12 13.998047 C 10.892578 13.998047 10.001953 13.107422 10.001953 12 C 10.001953 10.892578 10.892578 10.001953 12 10.001953 C 13.107422 10.001953 13.998047 10.892578 13.998047 12 Z M 13.998047 12 " transform="matrix(0.666667,0,0,0.666667,0,0)"/>
<path style="fill:none;stroke-width:2;stroke-linecap:round;stroke-linejoin:round;stroke:rgb(76.470588%,79.607843%,86.666667%);stroke-opacity:1;stroke-miterlimit:4;" d="M 16.242188 7.757812 C 17.367188 8.882812 18 10.412109 18 12.005859 C 18 13.599609 17.367188 15.123047 16.242188 16.248047 M 7.757812 16.242188 C 6.632812 15.117188 6 13.587891 6 11.994141 C 6 10.400391 6.632812 8.876953 7.757812 7.751953 M 19.072266 4.927734 C 22.974609 8.835938 22.974609 15.164062 19.072266 19.072266 M 4.927734 19.072266 C 1.025391 15.164062 1.025391 8.835938 4.927734 4.927734 " transform="matrix(0.666667,0,0,0.666667,0,0)"/>
</g>
</svg>
