<?xml version="1.0" encoding="UTF-8"?>
<svg xmlns="http://www.w3.org/2000/svg" xmlns:xlink="http://www.w3.org/1999/xlink" width="16px" height="16px" viewBox="0 0 16 16" version="1.1">
<g id="surface1">
<path style="fill:none;stroke-width:2;stroke-linecap:round;stroke-linejoin:round;stroke:rgb(76.470588%,79.607843%,86.666667%);stroke-opacity:1;stroke-miterlimit:4;" d="M 1.001953 4.001953 L 1.001953 10.001953 L 7.001953 10.001953 " transform="matrix(0.666667,0,0,0.666667,0,0)"/>
<path style="fill:none;stroke-width:2;stroke-linecap:round;stroke-linejoin:round;stroke:rgb(76.470588%,79.607843%,86.666667%);stroke-opacity:1;stroke-miterlimit:4;" d="M 22.998047 19.998047 L 22.998047 13.998047 L 16.998047 13.998047 " transform="matrix(0.666667,0,0,0.666667,0,0)"/>
<path style="fill:none;stroke-width:2;stroke-linecap:round;stroke-linejoin:round;stroke:rgb(76.470588%,79.607843%,86.666667%);stroke-opacity:1;stroke-miterlimit:4;" d="M 20.490234 9 C 19.458984 6.087891 17.003906 3.908203 13.992188 3.222656 C 10.980469 2.542969 7.822266 3.457031 5.642578 5.642578 L 1.001953 10.001953 M 22.998047 13.998047 L 18.357422 18.357422 C 16.177734 20.542969 13.019531 21.457031 10.007812 20.777344 C 6.996094 20.091797 4.541016 17.912109 3.509766 15 " transform="matrix(0.666667,0,0,0.666667,0,0)"/>
</g>
</svg>
