<?xml version="1.0" encoding="UTF-8"?>
<svg xmlns="http://www.w3.org/2000/svg" xmlns:xlink="http://www.w3.org/1999/xlink" width="16px" height="16px" viewBox="0 0 16 16" version="1.1">
<g id="surface1">
<path style="fill:none;stroke-width:2;stroke-linecap:round;stroke-linejoin:round;stroke:rgb(76.470588%,79.607843%,86.666667%);stroke-opacity:1;stroke-miterlimit:4;" d="M 22.998047 4.001953 L 22.998047 10.001953 L 16.998047 10.001953 " transform="matrix(0.666667,0,0,0.666667,0,0)"/>
<path style="fill:none;stroke-width:2;stroke-linecap:round;stroke-linejoin:round;stroke:rgb(76.470588%,79.607843%,86.666667%);stroke-opacity:1;stroke-miterlimit:4;" d="M 1.001953 19.998047 L 1.001953 13.998047 L 7.001953 13.998047 " transform="matrix(0.666667,0,0,0.666667,0,0)"/>
<path style="fill:none;stroke-width:2;stroke-linecap:round;stroke-linejoin:round;stroke:rgb(76.470588%,79.607843%,86.666667%);stroke-opacity:1;stroke-miterlimit:4;" d="M 3.509766 9 C 4.541016 6.087891 6.996094 3.908203 10.007812 3.222656 C 13.019531 2.542969 16.177734 3.457031 18.357422 5.642578 L 22.998047 10.001953 M 1.001953 13.998047 L 5.642578 18.357422 C 7.822266 20.542969 10.980469 21.457031 13.992188 20.777344 C 17.003906 20.091797 19.458984 17.912109 20.490234 15 " transform="matrix(0.666667,0,0,0.666667,0,0)"/>
</g>
</svg>
