<?xml version="1.0" encoding="UTF-8"?>
<svg xmlns="http://www.w3.org/2000/svg" xmlns:xlink="http://www.w3.org/1999/xlink" width="16px" height="16px" viewBox="0 0 16 16" version="1.1">
<g id="surface1">
<path style="fill:none;stroke-width:2;stroke-linecap:round;stroke-linejoin:round;stroke:rgb(76.470588%,79.607843%,86.666667%);stroke-opacity:1;stroke-miterlimit:4;" d="M 4.001953 10.998047 C 8.970703 10.998047 13.001953 15.029297 13.001953 19.998047 " transform="matrix(0.666667,0,0,0.666667,0,0)"/>
<path style="fill:none;stroke-width:2;stroke-linecap:round;stroke-linejoin:round;stroke:rgb(76.470588%,79.607843%,86.666667%);stroke-opacity:1;stroke-miterlimit:4;" d="M 4.001953 4.001953 C 12.837891 4.001953 19.998047 11.162109 19.998047 19.998047 " transform="matrix(0.666667,0,0,0.666667,0,0)"/>
<path style="fill:none;stroke-width:2;stroke-linecap:round;stroke-linejoin:round;stroke:rgb(76.470588%,79.607843%,86.666667%);stroke-opacity:1;stroke-miterlimit:4;" d="M 6 19.001953 C 6 19.552734 5.554688 19.998047 4.998047 19.998047 C 4.447266 19.998047 4.001953 19.552734 4.001953 19.001953 C 4.001953 18.445312 4.447266 18 4.998047 18 C 5.554688 18 6 18.445312 6 19.001953 Z M 6 19.001953 " transform="matrix(0.666667,0,0,0.666667,0,0)"/>
</g>
</svg>
