<?xml version="1.0" encoding="UTF-8"?>
<svg xmlns="http://www.w3.org/2000/svg" xmlns:xlink="http://www.w3.org/1999/xlink" width="16px" height="16px" viewBox="0 0 16 16" version="1.1">
<g id="surface1">
<path style="fill:none;stroke-width:2;stroke-linecap:round;stroke-linejoin:round;stroke:rgb(76.470588%,79.607843%,86.666667%);stroke-opacity:1;stroke-miterlimit:4;" d="M 15 12 C 15 13.658203 13.658203 15 12 15 C 10.341797 15 9 13.658203 9 12 C 9 10.341797 10.341797 9 12 9 C 13.658203 9 15 10.341797 15 12 Z M 15 12 " transform="matrix(0.666667,0,0,0.666667,0,0)"/>
<path style="fill:none;stroke-width:2;stroke-linecap:round;stroke-linejoin:round;stroke:rgb(76.470588%,79.607843%,86.666667%);stroke-opacity:1;stroke-miterlimit:4;" d="M 19.400391 15 C 19.125 15.615234 19.259766 16.335938 19.728516 16.822266 L 19.787109 16.880859 C 20.167969 17.255859 20.378906 17.765625 20.378906 18.292969 C 20.378906 18.826172 20.167969 19.335938 19.787109 19.710938 C 19.412109 20.085938 18.908203 20.296875 18.375 20.296875 C 17.841797 20.296875 17.337891 20.085938 16.962891 19.710938 L 16.898438 19.652344 C 16.417969 19.177734 15.697266 19.048828 15.082031 19.318359 C 14.472656 19.576172 14.080078 20.173828 14.080078 20.830078 L 14.080078 21 C 14.080078 22.107422 13.183594 22.998047 12.082031 22.998047 C 10.974609 22.998047 10.078125 22.107422 10.078125 21 L 10.078125 20.912109 C 10.066406 20.232422 9.638672 19.634766 9 19.400391 C 8.384766 19.125 7.664062 19.259766 7.177734 19.728516 L 7.119141 19.787109 C 6.744141 20.167969 6.234375 20.378906 5.707031 20.378906 C 5.173828 20.378906 4.664062 20.167969 4.289062 19.787109 C 3.914062 19.412109 3.703125 18.908203 3.703125 18.375 C 3.703125 17.841797 3.914062 17.337891 4.289062 16.962891 L 4.347656 16.898438 C 4.822266 16.417969 4.951172 15.697266 4.681641 15.082031 C 4.423828 14.472656 3.826172 14.080078 3.169922 14.080078 L 3 14.080078 C 1.892578 14.080078 1.001953 13.183594 1.001953 12.082031 C 1.001953 10.974609 1.892578 10.078125 3 10.078125 L 3.087891 10.078125 C 3.767578 10.066406 4.365234 9.638672 4.599609 9 C 4.875 8.384766 4.740234 7.664062 4.271484 7.177734 L 4.212891 7.119141 C 3.832031 6.744141 3.621094 6.234375 3.621094 5.707031 C 3.621094 5.173828 3.832031 4.664062 4.212891 4.289062 C 4.587891 3.914062 5.091797 3.703125 5.625 3.703125 C 6.158203 3.703125 6.662109 3.914062 7.037109 4.289062 L 7.101562 4.347656 C 7.582031 4.822266 8.302734 4.951172 8.917969 4.681641 L 9 4.681641 C 9.603516 4.423828 9.996094 3.826172 10.001953 3.169922 L 10.001953 3 C 10.001953 1.892578 10.892578 1.001953 12 1.001953 C 13.107422 1.001953 13.998047 1.892578 13.998047 3 L 13.998047 3.087891 C 14.003906 3.75 14.396484 4.341797 15 4.599609 C 15.615234 4.875 16.335938 4.740234 16.822266 4.271484 L 16.880859 4.212891 C 17.255859 3.832031 17.765625 3.621094 18.292969 3.621094 C 18.826172 3.621094 19.335938 3.832031 19.710938 4.212891 C 20.085938 4.587891 20.296875 5.091797 20.296875 5.625 C 20.296875 6.158203 20.085938 6.662109 19.710938 7.037109 L 19.652344 7.101562 C 19.177734 7.582031 19.048828 8.302734 19.318359 8.917969 L 19.318359 9 C 19.576172 9.603516 20.173828 9.996094 20.830078 10.001953 L 21 10.001953 C 22.107422 10.001953 22.998047 10.892578 22.998047 12 C 22.998047 13.107422 22.107422 13.998047 21 13.998047 L 20.912109 13.998047 C 20.25 14.003906 19.658203 14.396484 19.400391 15 Z M 19.400391 15 " transform="matrix(0.666667,0,0,0.666667,0,0)"/>
</g>
</svg>
