<?xml version="1.0" encoding="UTF-8"?>
<svg xmlns="http://www.w3.org/2000/svg" xmlns:xlink="http://www.w3.org/1999/xlink" width="16px" height="16px" viewBox="0 0 16 16" version="1.1">
<g id="surface1">
<path style="fill:none;stroke-width:2;stroke-linecap:round;stroke-linejoin:round;stroke:rgb(76.470588%,79.607843%,86.666667%);stroke-opacity:1;stroke-miterlimit:4;" d="M 14.501953 10.001953 C 13.669922 10.001953 13.001953 9.328125 13.001953 8.501953 L 13.001953 3.498047 C 13.001953 2.671875 13.669922 1.998047 14.501953 1.998047 C 15.328125 1.998047 16.001953 2.671875 16.001953 3.498047 L 16.001953 8.501953 C 16.001953 9.328125 15.328125 10.001953 14.501953 10.001953 Z M 14.501953 10.001953 " transform="matrix(0.666667,0,0,0.666667,0,0)"/>
<path style="fill:none;stroke-width:2;stroke-linecap:round;stroke-linejoin:round;stroke:rgb(76.470588%,79.607843%,86.666667%);stroke-opacity:1;stroke-miterlimit:4;" d="M 20.501953 10.001953 L 19.001953 10.001953 L 19.001953 8.501953 C 19.001953 7.669922 19.669922 7.001953 20.501953 7.001953 C 21.328125 7.001953 22.001953 7.669922 22.001953 8.501953 C 22.001953 9.328125 21.328125 10.001953 20.501953 10.001953 Z M 20.501953 10.001953 " transform="matrix(0.666667,0,0,0.666667,0,0)"/>
<path style="fill:none;stroke-width:2;stroke-linecap:round;stroke-linejoin:round;stroke:rgb(76.470588%,79.607843%,86.666667%);stroke-opacity:1;stroke-miterlimit:4;" d="M 9.498047 13.998047 C 10.330078 13.998047 10.998047 14.671875 10.998047 15.498047 L 10.998047 20.501953 C 10.998047 21.328125 10.330078 22.001953 9.498047 22.001953 C 8.671875 22.001953 7.998047 21.328125 7.998047 20.501953 L 7.998047 15.498047 C 7.998047 14.671875 8.671875 13.998047 9.498047 13.998047 Z M 9.498047 13.998047 " transform="matrix(0.666667,0,0,0.666667,0,0)"/>
<path style="fill:none;stroke-width:2;stroke-linecap:round;stroke-linejoin:round;stroke:rgb(76.470588%,79.607843%,86.666667%);stroke-opacity:1;stroke-miterlimit:4;" d="M 3.498047 13.998047 L 4.998047 13.998047 L 4.998047 15.498047 C 4.998047 16.330078 4.330078 16.998047 3.498047 16.998047 C 2.671875 16.998047 1.998047 16.330078 1.998047 15.498047 C 1.998047 14.671875 2.671875 13.998047 3.498047 13.998047 Z M 3.498047 13.998047 " transform="matrix(0.666667,0,0,0.666667,0,0)"/>
<path style="fill:none;stroke-width:2;stroke-linecap:round;stroke-linejoin:round;stroke:rgb(76.470588%,79.607843%,86.666667%);stroke-opacity:1;stroke-miterlimit:4;" d="M 13.998047 14.501953 C 13.998047 13.669922 14.671875 13.001953 15.498047 13.001953 L 20.501953 13.001953 C 21.328125 13.001953 22.001953 13.669922 22.001953 14.501953 C 22.001953 15.328125 21.328125 16.001953 20.501953 16.001953 L 15.498047 16.001953 C 14.671875 16.001953 13.998047 15.328125 13.998047 14.501953 Z M 13.998047 14.501953 " transform="matrix(0.666667,0,0,0.666667,0,0)"/>
<path style="fill:none;stroke-width:2;stroke-linecap:round;stroke-linejoin:round;stroke:rgb(76.470588%,79.607843%,86.666667%);stroke-opacity:1;stroke-miterlimit:4;" d="M 15.498047 19.001953 L 13.998047 19.001953 L 13.998047 20.501953 C 13.998047 21.328125 14.671875 22.001953 15.498047 22.001953 C 16.330078 22.001953 16.998047 21.328125 16.998047 20.501953 C 16.998047 19.669922 16.330078 19.001953 15.498047 19.001953 Z M 15.498047 19.001953 " transform="matrix(0.666667,0,0,0.666667,0,0)"/>
<path style="fill:none;stroke-width:2;stroke-linecap:round;stroke-linejoin:round;stroke:rgb(76.470588%,79.607843%,86.666667%);stroke-opacity:1;stroke-miterlimit:4;" d="M 10.001953 9.498047 C 10.001953 8.671875 9.328125 7.998047 8.501953 7.998047 L 3.498047 7.998047 C 2.671875 7.998047 1.998047 8.671875 1.998047 9.498047 C 1.998047 10.330078 2.671875 10.998047 3.498047 10.998047 L 8.501953 10.998047 C 9.328125 10.998047 10.001953 10.330078 10.001953 9.498047 Z M 10.001953 9.498047 " transform="matrix(0.666667,0,0,0.666667,0,0)"/>
<path style="fill:none;stroke-width:2;stroke-linecap:round;stroke-linejoin:round;stroke:rgb(76.470588%,79.607843%,86.666667%);stroke-opacity:1;stroke-miterlimit:4;" d="M 8.501953 4.998047 L 10.001953 4.998047 L 10.001953 3.498047 C 10.001953 2.671875 9.328125 1.998047 8.501953 1.998047 C 7.669922 1.998047 7.001953 2.671875 7.001953 3.498047 C 7.001953 4.330078 7.669922 4.998047 8.501953 4.998047 Z M 8.501953 4.998047 " transform="matrix(0.666667,0,0,0.666667,0,0)"/>
</g>
</svg>
