<?xml version="1.0" encoding="UTF-8"?>
<svg xmlns="http://www.w3.org/2000/svg" xmlns:xlink="http://www.w3.org/1999/xlink" width="16px" height="16px" viewBox="0 0 16 16" version="1.1">
<g id="surface1">
<path style="fill:none;stroke-width:2;stroke-linecap:round;stroke-linejoin:round;stroke:rgb(76.470588%,79.607843%,86.666667%);stroke-opacity:1;stroke-miterlimit:4;" d="M 6 1.998047 L 18 1.998047 C 19.107422 1.998047 19.998047 2.894531 19.998047 4.001953 L 19.998047 19.998047 C 19.998047 21.105469 19.107422 22.001953 18 22.001953 L 6 22.001953 C 4.892578 22.001953 4.001953 21.105469 4.001953 19.998047 L 4.001953 4.001953 C 4.001953 2.894531 4.892578 1.998047 6 1.998047 Z M 6 1.998047 " transform="matrix(0.666667,0,0,0.666667,0,0)"/>
<path style="fill:none;stroke-width:2;stroke-linecap:round;stroke-linejoin:round;stroke:rgb(76.470588%,79.607843%,86.666667%);stroke-opacity:1;stroke-miterlimit:4;" d="M 16.001953 13.998047 C 16.001953 16.207031 14.208984 18 12 18 C 9.791016 18 7.998047 16.207031 7.998047 13.998047 C 7.998047 11.789062 9.791016 10.001953 12 10.001953 C 14.208984 10.001953 16.001953 11.789062 16.001953 13.998047 Z M 16.001953 13.998047 " transform="matrix(0.666667,0,0,0.666667,0,0)"/>
<path style="fill:none;stroke-width:2;stroke-linecap:round;stroke-linejoin:round;stroke:rgb(76.470588%,79.607843%,86.666667%);stroke-opacity:1;stroke-miterlimit:4;" d="M 12 6 L 12.011719 6 " transform="matrix(0.666667,0,0,0.666667,0,0)"/>
</g>
</svg>
