<?xml version="1.0" encoding="UTF-8"?>
<svg xmlns="http://www.w3.org/2000/svg" xmlns:xlink="http://www.w3.org/1999/xlink" width="16px" height="16px" viewBox="0 0 16 16" version="1.1">
<g id="surface1">
<path style="fill:none;stroke-width:2;stroke-linecap:round;stroke-linejoin:round;stroke:rgb(76.470588%,79.607843%,86.666667%);stroke-opacity:1;stroke-miterlimit:4;" d="M 22.001953 12 C 22.001953 17.525391 17.525391 22.001953 12 22.001953 C 6.474609 22.001953 1.998047 17.525391 1.998047 12 C 1.998047 6.474609 6.474609 1.998047 12 1.998047 C 17.525391 1.998047 22.001953 6.474609 22.001953 12 Z M 22.001953 12 " transform="matrix(0.666667,0,0,0.666667,0,0)"/>
<path style="fill:none;stroke-width:2;stroke-linecap:round;stroke-linejoin:round;stroke:rgb(76.470588%,79.607843%,86.666667%);stroke-opacity:1;stroke-miterlimit:4;" d="M 18 12 C 18 15.316406 15.316406 18 12 18 C 8.683594 18 6 15.316406 6 12 C 6 8.683594 8.683594 6 12 6 C 15.316406 6 18 8.683594 18 12 Z M 18 12 " transform="matrix(0.666667,0,0,0.666667,0,0)"/>
<path style="fill:none;stroke-width:2;stroke-linecap:round;stroke-linejoin:round;stroke:rgb(76.470588%,79.607843%,86.666667%);stroke-opacity:1;stroke-miterlimit:4;" d="M 13.998047 12 C 13.998047 13.107422 13.107422 13.998047 12 13.998047 C 10.892578 13.998047 10.001953 13.107422 10.001953 12 C 10.001953 10.892578 10.892578 10.001953 12 10.001953 C 13.107422 10.001953 13.998047 10.892578 13.998047 12 Z M 13.998047 12 " transform="matrix(0.666667,0,0,0.666667,0,0)"/>
</g>
</svg>
