<?xml version="1.0" encoding="UTF-8"?>
<svg xmlns="http://www.w3.org/2000/svg" xmlns:xlink="http://www.w3.org/1999/xlink" width="16px" height="16px" viewBox="0 0 16 16" version="1.1">
<g id="surface1">
<path style="fill:none;stroke-width:2;stroke-linecap:round;stroke-linejoin:round;stroke:rgb(76.470588%,79.607843%,86.666667%);stroke-opacity:1;stroke-miterlimit:4;" d="M 13.998047 9 L 13.998047 4.998047 C 13.998047 3.345703 12.65625 1.998047 10.998047 1.998047 L 7.001953 10.998047 L 7.001953 22.001953 L 18.28125 22.001953 C 19.277344 22.013672 20.132812 21.287109 20.279297 20.302734 L 21.662109 11.302734 C 21.75 10.722656 21.574219 10.130859 21.193359 9.685547 C 20.806641 9.246094 20.244141 8.994141 19.658203 9 Z M 7.001953 22.001953 L 4.001953 22.001953 C 2.894531 22.001953 1.998047 21.105469 1.998047 19.998047 L 1.998047 13.001953 C 1.998047 11.894531 2.894531 10.998047 4.001953 10.998047 L 7.001953 10.998047 " transform="matrix(0.666667,0,0,0.666667,0,0)"/>
</g>
</svg>
