<?xml version="1.0" encoding="UTF-8"?>
<svg xmlns="http://www.w3.org/2000/svg" xmlns:xlink="http://www.w3.org/1999/xlink" width="16px" height="16px" viewBox="0 0 16 16" version="1.1">
<g id="surface1">
<path style="fill:none;stroke-width:2;stroke-linecap:round;stroke-linejoin:round;stroke:rgb(76.470588%,79.607843%,86.666667%);stroke-opacity:1;stroke-miterlimit:4;" d="M 10.001953 15 L 10.001953 19.001953 C 10.001953 20.654297 11.34375 22.001953 13.001953 22.001953 L 16.998047 13.001953 L 16.998047 1.998047 L 5.71875 1.998047 C 4.722656 1.986328 3.867188 2.712891 3.720703 3.697266 L 2.337891 12.697266 C 2.25 13.277344 2.425781 13.869141 2.806641 14.314453 C 3.193359 14.753906 3.755859 15.005859 4.341797 15 Z M 16.998047 1.998047 L 19.669922 1.998047 C 20.841797 1.980469 21.84375 2.841797 22.001953 4.001953 L 22.001953 10.998047 C 21.84375 12.158203 20.841797 13.019531 19.669922 13.001953 L 16.998047 13.001953 " transform="matrix(0.666667,0,0,0.666667,0,0)"/>
</g>
</svg>
