<?xml version="1.0" encoding="UTF-8"?>
<svg xmlns="http://www.w3.org/2000/svg" xmlns:xlink="http://www.w3.org/1999/xlink" width="16px" height="16px" viewBox="0 0 16 16" version="1.1">
<g id="surface1">
<path style="fill:none;stroke-width:2;stroke-linecap:round;stroke-linejoin:round;stroke:rgb(76.470588%,79.607843%,86.666667%);stroke-opacity:1;stroke-miterlimit:4;" d="M 14.701172 6.298828 C 14.320312 6.691406 14.320312 7.3125 14.701172 7.699219 L 16.300781 9.298828 C 16.6875 9.679688 17.308594 9.679688 17.701172 9.298828 L 21.46875 5.53125 C 22.5 7.804688 22.013672 10.482422 20.244141 12.246094 C 18.480469 14.009766 15.802734 14.501953 13.529297 13.470703 L 6.621094 20.378906 C 5.789062 21.210938 4.447266 21.210938 3.621094 20.378906 C 2.789062 19.552734 2.789062 18.210938 3.621094 17.378906 L 10.529297 10.470703 C 9.498047 8.197266 9.990234 5.519531 11.753906 3.755859 C 13.517578 1.986328 16.195312 1.5 18.46875 2.53125 Z M 14.701172 6.298828 " transform="matrix(0.666667,0,0,0.666667,0,0)"/>
</g>
</svg>
