<?xml version="1.0" encoding="UTF-8"?>
<svg xmlns="http://www.w3.org/2000/svg" xmlns:xlink="http://www.w3.org/1999/xlink" width="16px" height="16px" viewBox="0 0 16 16" version="1.1">
<g id="surface1">
<path style="fill:none;stroke-width:2;stroke-linecap:round;stroke-linejoin:round;stroke:rgb(76.470588%,79.607843%,86.666667%);stroke-opacity:1;stroke-miterlimit:4;" d="M 4.998047 3 L 19.001953 3 C 20.103516 3 21 3.896484 21 4.998047 L 21 19.001953 C 21 20.103516 20.103516 21 19.001953 21 L 4.998047 21 C 3.896484 21 3 20.103516 3 19.001953 L 3 4.998047 C 3 3.896484 3.896484 3 4.998047 3 Z M 4.998047 3 " transform="matrix(0.666667,0,0,0.666667,0,0)"/>
<path style="fill:none;stroke-width:2;stroke-linecap:round;stroke-linejoin:round;stroke:rgb(76.470588%,79.607843%,86.666667%);stroke-opacity:1;stroke-miterlimit:4;" d="M 7.001953 7.001953 L 10.001953 7.001953 L 10.001953 16.001953 L 7.001953 16.001953 Z M 7.001953 7.001953 " transform="matrix(0.666667,0,0,0.666667,0,0)"/>
<path style="fill:none;stroke-width:2;stroke-linecap:round;stroke-linejoin:round;stroke:rgb(76.470588%,79.607843%,86.666667%);stroke-opacity:1;stroke-miterlimit:4;" d="M 13.998047 7.001953 L 16.998047 7.001953 L 16.998047 12 L 13.998047 12 Z M 13.998047 7.001953 " transform="matrix(0.666667,0,0,0.666667,0,0)"/>
</g>
</svg>
