<?xml version="1.0" encoding="UTF-8"?>
<svg xmlns="http://www.w3.org/2000/svg" xmlns:xlink="http://www.w3.org/1999/xlink" width="16px" height="16px" viewBox="0 0 16 16" version="1.1">
<g id="surface1">
<path style="fill:none;stroke-width:2;stroke-linecap:round;stroke-linejoin:round;stroke:rgb(76.470588%,79.607843%,86.666667%);stroke-opacity:1;stroke-miterlimit:4;" d="M 22.998047 3 C 22.042969 3.673828 20.982422 4.189453 19.857422 4.529297 C 18.626953 3.111328 16.640625 2.613281 14.882812 3.287109 C 13.125 3.955078 11.976562 5.648438 12 7.529297 L 12 8.53125 C 8.431641 8.625 5.050781 6.919922 3 4.001953 C 3 4.001953 -1.001953 13.001953 7.998047 16.998047 C 5.941406 18.398438 3.486328 19.101562 1.001953 19.001953 C 10.001953 24 21 19.001953 21 7.5 C 21 7.21875 20.970703 6.943359 20.917969 6.667969 C 21.943359 5.666016 22.658203 4.394531 22.998047 3 Z M 22.998047 3 " transform="matrix(0.666667,0,0,0.666667,0,0)"/>
</g>
</svg>
