<?xml version="1.0" encoding="UTF-8"?>
<svg xmlns="http://www.w3.org/2000/svg" xmlns:xlink="http://www.w3.org/1999/xlink" width="16px" height="16px" viewBox="0 0 16 16" version="1.1">
<g id="surface1">
<path style="fill:none;stroke-width:2;stroke-linecap:round;stroke-linejoin:round;stroke:rgb(76.470588%,79.607843%,86.666667%);stroke-opacity:1;stroke-miterlimit:4;" d="M 16.001953 16.001953 L 12 12 L 7.998047 16.001953 " transform="matrix(0.666667,0,0,0.666667,0,0)"/>
<path style="fill:none;stroke-width:2;stroke-linecap:round;stroke-linejoin:round;stroke:rgb(76.470588%,79.607843%,86.666667%);stroke-opacity:1;stroke-miterlimit:4;" d="M 12 12 L 12 21 " transform="matrix(0.666667,0,0,0.666667,0,0)"/>
<path style="fill:none;stroke-width:2;stroke-linecap:round;stroke-linejoin:round;stroke:rgb(76.470588%,79.607843%,86.666667%);stroke-opacity:1;stroke-miterlimit:4;" d="M 20.390625 18.392578 C 22.394531 17.296875 23.408203 14.982422 22.839844 12.767578 C 22.277344 10.552734 20.285156 9 18 9 L 16.740234 9 C 15.908203 5.794922 13.195312 3.427734 9.902344 3.052734 C 6.609375 2.677734 3.427734 4.371094 1.898438 7.306641 C 0.369141 10.242188 0.808594 13.816406 3 16.300781 " transform="matrix(0.666667,0,0,0.666667,0,0)"/>
<path style="fill:none;stroke-width:2;stroke-linecap:round;stroke-linejoin:round;stroke:rgb(76.470588%,79.607843%,86.666667%);stroke-opacity:1;stroke-miterlimit:4;" d="M 16.001953 16.001953 L 12 12 L 7.998047 16.001953 " transform="matrix(0.666667,0,0,0.666667,0,0)"/>
</g>
</svg>
