<?xml version="1.0" encoding="UTF-8"?>
<svg xmlns="http://www.w3.org/2000/svg" xmlns:xlink="http://www.w3.org/1999/xlink" width="16px" height="16px" viewBox="0 0 16 16" version="1.1">
<g id="surface1">
<path style="fill:none;stroke-width:2;stroke-linecap:round;stroke-linejoin:round;stroke:rgb(76.470588%,79.607843%,86.666667%);stroke-opacity:1;stroke-miterlimit:4;" d="M 19.998047 21 L 19.998047 19.001953 C 19.998047 16.792969 18.210938 15 16.001953 15 L 7.998047 15 C 5.789062 15 4.001953 16.792969 4.001953 19.001953 L 4.001953 21 " transform="matrix(0.666667,0,0,0.666667,0,0)"/>
<path style="fill:none;stroke-width:2;stroke-linecap:round;stroke-linejoin:round;stroke:rgb(76.470588%,79.607843%,86.666667%);stroke-opacity:1;stroke-miterlimit:4;" d="M 16.001953 7.001953 C 16.001953 9.210938 14.208984 10.998047 12 10.998047 C 9.791016 10.998047 7.998047 9.210938 7.998047 7.001953 C 7.998047 4.792969 9.791016 3 12 3 C 14.208984 3 16.001953 4.792969 16.001953 7.001953 Z M 16.001953 7.001953 " transform="matrix(0.666667,0,0,0.666667,0,0)"/>
</g>
</svg>
