<?xml version="1.0" encoding="UTF-8"?>
<svg xmlns="http://www.w3.org/2000/svg" xmlns:xlink="http://www.w3.org/1999/xlink" width="16px" height="16px" viewBox="0 0 16 16" version="1.1">
<g id="surface1">
<path style="fill:none;stroke-width:2;stroke-linecap:round;stroke-linejoin:round;stroke:rgb(76.470588%,79.607843%,86.666667%);stroke-opacity:1;stroke-miterlimit:4;" d="M 16.001953 16.001953 L 16.001953 16.998047 C 16.001953 18.105469 15.105469 19.001953 13.998047 19.001953 L 3 19.001953 C 1.892578 19.001953 1.001953 18.105469 1.001953 16.998047 L 1.001953 7.001953 C 1.001953 5.894531 1.892578 4.998047 3 4.998047 L 4.998047 4.998047 M 10.658203 4.998047 L 13.998047 4.998047 C 15.105469 4.998047 16.001953 5.894531 16.001953 7.001953 L 16.001953 10.341797 L 16.998047 11.337891 L 22.998047 7.001953 L 22.998047 16.998047 " transform="matrix(0.666667,0,0,0.666667,0,0)"/>
<path style="fill:none;stroke-width:2;stroke-linecap:round;stroke-linejoin:round;stroke:rgb(76.470588%,79.607843%,86.666667%);stroke-opacity:1;stroke-miterlimit:4;" d="M 1.001953 1.001953 L 22.998047 22.998047 " transform="matrix(0.666667,0,0,0.666667,0,0)"/>
</g>
</svg>
