<?xml version="1.0" encoding="UTF-8"?>
<svg xmlns="http://www.w3.org/2000/svg" xmlns:xlink="http://www.w3.org/1999/xlink" width="16px" height="16px" viewBox="0 0 16 16" version="1.1">
<g id="surface1">
<path style="fill:none;stroke-width:2;stroke-linecap:round;stroke-linejoin:round;stroke:rgb(76.470588%,79.607843%,86.666667%);stroke-opacity:1;stroke-miterlimit:4;" d="M 10.001953 11.501953 C 10.001953 13.986328 7.986328 16.001953 5.501953 16.001953 C 3.017578 16.001953 1.001953 13.986328 1.001953 11.501953 C 1.001953 9.017578 3.017578 7.001953 5.501953 7.001953 C 7.986328 7.001953 10.001953 9.017578 10.001953 11.501953 Z M 10.001953 11.501953 " transform="matrix(0.666667,0,0,0.666667,0,0)"/>
<path style="fill:none;stroke-width:2;stroke-linecap:round;stroke-linejoin:round;stroke:rgb(76.470588%,79.607843%,86.666667%);stroke-opacity:1;stroke-miterlimit:4;" d="M 22.998047 11.501953 C 22.998047 13.986328 20.982422 16.001953 18.498047 16.001953 C 16.013672 16.001953 13.998047 13.986328 13.998047 11.501953 C 13.998047 9.017578 16.013672 7.001953 18.498047 7.001953 C 20.982422 7.001953 22.998047 9.017578 22.998047 11.501953 Z M 22.998047 11.501953 " transform="matrix(0.666667,0,0,0.666667,0,0)"/>
<path style="fill:none;stroke-width:2;stroke-linecap:round;stroke-linejoin:round;stroke:rgb(76.470588%,79.607843%,86.666667%);stroke-opacity:1;stroke-miterlimit:4;" d="M 5.501953 16.001953 L 18.498047 16.001953 " transform="matrix(0.666667,0,0,0.666667,0,0)"/>
</g>
</svg>
