<?xml version="1.0" encoding="UTF-8"?>
<svg xmlns="http://www.w3.org/2000/svg" xmlns:xlink="http://www.w3.org/1999/xlink" width="16px" height="16px" viewBox="0 0 16 16" version="1.1">
<g id="surface1">
<path style="fill:none;stroke-width:2;stroke-linecap:round;stroke-linejoin:round;stroke:rgb(76.470588%,79.607843%,86.666667%);stroke-opacity:1;stroke-miterlimit:4;" d="M 9.591797 4.587891 C 10.230469 3.949219 11.220703 3.814453 12.005859 4.265625 C 12.791016 4.722656 13.177734 5.642578 12.9375 6.521484 C 12.703125 7.394531 11.90625 8.003906 10.998047 7.998047 L 1.998047 7.998047 M 12.591797 19.412109 C 13.230469 20.050781 14.220703 20.185547 15.005859 19.734375 C 15.791016 19.277344 16.177734 18.357422 15.9375 17.478516 C 15.703125 16.605469 14.90625 15.996094 13.998047 16.001953 L 1.998047 16.001953 M 17.730469 7.728516 C 18.533203 6.931641 19.769531 6.767578 20.748047 7.335938 C 21.726562 7.898438 22.201172 9.052734 21.908203 10.142578 C 21.621094 11.238281 20.630859 12 19.5 12 L 1.998047 12 " transform="matrix(0.666667,0,0,0.666667,0,0)"/>
</g>
</svg>
