<?xml version="1.0" encoding="UTF-8"?>
<svg xmlns="http://www.w3.org/2000/svg" xmlns:xlink="http://www.w3.org/1999/xlink" width="16px" height="16px" viewBox="0 0 16 16" version="1.1">
<g id="surface1">
<path style="fill:none;stroke-width:2;stroke-linecap:round;stroke-linejoin:round;stroke:rgb(76.470588%,79.607843%,86.666667%);stroke-opacity:1;stroke-miterlimit:4;" d="M 22.541016 6.421875 C 22.300781 5.455078 21.556641 4.693359 20.601562 4.417969 C 18.878906 4.001953 12 4.001953 12 4.001953 C 12 4.001953 5.121094 4.001953 3.398438 4.458984 C 2.443359 4.728516 1.699219 5.496094 1.458984 6.462891 C 1.142578 8.203125 0.990234 9.978516 1.001953 11.748047 C 0.990234 13.535156 1.142578 15.322266 1.458984 17.080078 C 1.728516 18.017578 2.460938 18.744141 3.398438 19.001953 C 5.121094 19.458984 12 19.458984 12 19.458984 C 12 19.458984 18.878906 19.458984 20.601562 19.001953 C 21.556641 18.726562 22.300781 17.964844 22.541016 16.998047 C 22.851562 15.269531 23.003906 13.511719 22.998047 11.748047 C 23.009766 9.960938 22.857422 8.179688 22.541016 6.421875 Z M 22.541016 6.421875 " transform="matrix(0.666667,0,0,0.666667,0,0)"/>
<path style="fill:none;stroke-width:2;stroke-linecap:round;stroke-linejoin:round;stroke:rgb(76.470588%,79.607843%,86.666667%);stroke-opacity:1;stroke-miterlimit:4;" d="M 9.75 15.017578 L 15.498047 11.748047 L 9.75 8.478516 Z M 9.75 15.017578 " transform="matrix(0.666667,0,0,0.666667,0,0)"/>
</g>
</svg>
